<?xml version="1.0" standalone="no"?><!DOCTYPE svg PUBLIC "-//W3C//DTD SVG 1.1//EN" "http://www.w3.org/Graphics/SVG/1.1/DTD/svg11.dtd"><svg width="100%" height="100%" viewBox="0 0 22 22" version="1.1" xmlns="http://www.w3.org/2000/svg" xmlns:xlink="http://www.w3.org/1999/xlink" xml:space="preserve" style="fill-rule:evenodd;clip-rule:evenodd;stroke-linejoin:round;stroke-miterlimit:1.41421;"><g id="Calque1"><circle cx="11" cy="11" r="11" style="fill:#bcbcbc;"/><path d="M11,22l-0.142,-0.001l-0.142,-0.003l-0.141,-0.004l-0.141,-0.006l-0.14,-0.008l-0.14,-0.01l-0.139,-0.011l-0.139,-0.014l-0.139,-0.014l-0.137,-0.018l-0.138,-0.018l-0.136,-0.019l-0.136,-0.022l-0.136,-0.024l-0.135,-0.025l-0.135,-0.027l-0.133,-0.028l-0.134,-0.03l-0.133,-0.031l-0.132,-0.033l-0.131,-0.035l-0.131,-0.036l-0.13,-0.039l-0.129,-0.039l-0.129,-0.041l-0.128,-0.042l-0.128,-0.044l-0.127,-0.046l-0.126,-0.047l-0.124,-0.049l-0.125,-0.049l-0.124,-0.052l-0.123,-0.053l-0.122,-0.055l-0.122,-0.055l-0.12,-0.057l-0.12,-0.059l-0.119,-0.06l-0.118,-0.062l-0.117,-0.063l-0.117,-0.063l-0.115,-0.066l-0.115,-0.067l-0.114,-0.068l-0.113,-0.07l-0.112,-0.071l-0.111,-0.072l-0.11,-0.073l-0.109,-0.076l-0.109,-0.075l-0.107,-0.078l-0.107,-0.079l-0.105,-0.079l-0.104,-0.082l-0.104,-0.081l-0.102,-0.084l-0.102,-0.085l-0.1,-0.086l-0.099,-0.086l-0.098,-0.089l-0.098,-0.09l-0.096,-0.09l-0.095,-0.091l-0.094,-0.093l-0.093,-0.094l-0.091,-0.095l-0.09,-0.096l-0.09,-0.098l-0.089,-0.098l-0.086,-0.099l-0.086,-0.1l-0.084,-0.102l-0.085,-0.102l-0.081,-0.104l-0.082,-0.104l-0.079,-0.105l-0.079,-0.106l-0.078,-0.108l-0.075,-0.109l-0.076,-0.109l-0.073,-0.11l-0.072,-0.111l-0.071,-0.112l-0.07,-0.113l-0.068,-0.114l-0.067,-0.115l-0.066,-0.115l-0.063,-0.116l-0.063,-0.118l-0.061,-0.118l-0.061,-0.119l-0.059,-0.12l-0.056,-0.12l-0.056,-0.122l-0.055,-0.122l-0.053,-0.123l-0.052,-0.124l-0.049,-0.124l-0.049,-0.125l-0.047,-0.126l-0.046,-0.127l-0.044,-0.128l-0.042,-0.128l-0.041,-0.129l-0.039,-0.129l-0.039,-0.13l-0.036,-0.131l-0.034,-0.131l-0.033,-0.132l-0.032,-0.133l-0.03,-0.134l-0.028,-0.133l-0.027,-0.135l-0.025,-0.135l-0.023,-0.136l-0.022,-0.136l-0.02,-0.136l-0.018,-0.138l-0.017,-0.137l-0.015,-0.139l-0.014,-0.139l-0.011,-0.139l-0.01,-0.14l-0.008,-0.14l-0.006,-0.141l-0.004,-0.141l-0.003,-0.142l-0.001,-0.142l0.001,-0.142l0.003,-0.142l0.004,-0.141l0.006,-0.141l0.008,-0.14l0.01,-0.14l0.011,-0.139l0.014,-0.139l0.015,-0.139l0.017,-0.137l0.018,-0.138l0.02,-0.136l0.022,-0.136l0.023,-0.136l0.025,-0.135l0.027,-0.135l0.028,-0.133l0.03,-0.134l0.032,-0.133l0.033,-0.132l0.034,-0.131l0.036,-0.131l0.039,-0.13l0.039,-0.129l0.041,-0.129l0.042,-0.128l0.044,-0.128l0.046,-0.127l0.047,-0.126l0.049,-0.124l0.049,-0.125l0.052,-0.124l0.053,-0.123l0.055,-0.122l0.056,-0.122l0.056,-0.12l0.059,-0.12l0.061,-0.119l0.061,-0.118l0.063,-0.117l0.063,-0.117l0.066,-0.115l0.067,-0.115l0.068,-0.114l0.07,-0.113l0.071,-0.112l0.072,-0.111l0.073,-0.11l0.076,-0.109l0.075,-0.109l0.078,-0.107l0.079,-0.107l0.079,-0.105l0.082,-0.104l0.081,-0.104l0.085,-0.102l0.084,-0.102l0.086,-0.1l0.086,-0.099l0.089,-0.098l0.09,-0.098l0.09,-0.096l0.091,-0.095l0.093,-0.094l0.094,-0.093l0.095,-0.091l0.096,-0.09l0.098,-0.09l0.098,-0.089l0.099,-0.086l0.1,-0.086l0.102,-0.084l0.102,-0.085l0.104,-0.081l0.104,-0.082l0.105,-0.079l0.107,-0.079l0.107,-0.078l0.109,-0.075l0.109,-0.076l0.11,-0.073l0.111,-0.072l0.112,-0.071l0.113,-0.07l0.114,-0.068l0.115,-0.067l0.115,-0.066l0.117,-0.063l0.117,-0.063l0.118,-0.061l0.119,-0.061l0.12,-0.059l0.12,-0.056l0.122,-0.056l0.122,-0.055l0.123,-0.053l0.124,-0.052l0.125,-0.049l0.124,-0.049l0.126,-0.047l0.127,-0.046l0.128,-0.044l0.128,-0.042l0.129,-0.041l0.129,-0.039l0.13,-0.039l0.131,-0.036l0.131,-0.034l0.132,-0.033l0.133,-0.032l0.134,-0.03l0.133,-0.028l0.135,-0.027l0.135,-0.025l0.136,-0.023l0.136,-0.022l0.136,-0.02l0.138,-0.018l0.137,-0.017l0.139,-0.015l0.139,-0.014l0.139,-0.011l0.14,-0.01l0.14,-0.008l0.141,-0.006l0.141,-0.004l0.142,-0.003l0.142,-0.001l0.142,0.001l0.142,0.003l0.141,0.004l0.141,0.006l0.14,0.008l0.14,0.01l0.139,0.011l0.139,0.014l0.139,0.015l0.137,0.017l0.138,0.018l0.136,0.02l0.136,0.022l0.136,0.023l0.135,0.025l0.135,0.027l0.133,0.028l0.134,0.03l0.133,0.032l0.132,0.033l0.131,0.034l0.131,0.036l0.13,0.039l0.129,0.039l0.129,0.041l0.128,0.042l0.128,0.044l0.127,0.046l0.126,0.047l0.125,0.049l0.124,0.049l0.124,0.052l0.123,0.053l0.122,0.055l0.122,0.056l0.12,0.056l0.12,0.059l0.119,0.061l0.118,0.061l0.118,0.063l0.116,0.063l0.115,0.066l0.115,0.067l0.114,0.068l0.113,0.07l0.112,0.071l0.111,0.072l0.11,0.073l0.109,0.076l0.109,0.075l0.108,0.078l0.106,0.079l0.105,0.079l0.104,0.082l0.104,0.081l0.102,0.085l0.102,0.084l0.1,0.086l0.099,0.086l0.098,0.089l0.098,0.09l0.096,0.09l0.095,0.091l0.094,0.093l0.093,0.094l0.091,0.095l0.09,0.096l0.09,0.098l0.089,0.098l0.086,0.099l0.086,0.1l0.085,0.102l0.084,0.102l0.081,0.104l0.082,0.104l0.079,0.105l0.079,0.107l0.078,0.107l0.075,0.109l0.076,0.109l0.073,0.11l0.072,0.111l0.071,0.112l0.07,0.113l0.068,0.114l0.067,0.115l0.066,0.115l0.063,0.117l0.063,0.117l0.062,0.118l0.06,0.119l0.059,0.12l0.057,0.12l0.055,0.122l0.055,0.122l0.053,0.123l0.052,0.124l0.049,0.125l0.049,0.124l0.047,0.126l0.046,0.127l0.044,0.128l0.042,0.128l0.041,0.129l0.039,0.129l0.039,0.13l0.036,0.131l0.035,0.131l0.033,0.132l0.031,0.133l0.03,0.134l0.028,0.133l0.027,0.135l0.025,0.135l0.024,0.136l0.022,0.136l0.019,0.136l0.018,0.138l0.018,0.137l0.014,0.139l0.014,0.139l0.011,0.139l0.01,0.14l0.008,0.14l0.006,0.141l0.004,0.141l0.003,0.142l0.001,0.142l-0.001,0.142l-0.003,0.142l-0.004,0.141l-0.006,0.141l-0.008,0.14l-0.01,0.14l-0.011,0.139l-0.014,0.139l-0.014,0.139l-0.018,0.137l-0.018,0.138l-0.019,0.136l-0.022,0.136l-0.024,0.136l-0.025,0.135l-0.027,0.135l-0.028,0.133l-0.03,0.134l-0.031,0.133l-0.033,0.132l-0.035,0.131l-0.036,0.131l-0.039,0.13l-0.039,0.129l-0.041,0.129l-0.042,0.128l-0.044,0.128l-0.046,0.127l-0.047,0.126l-0.049,0.125l-0.049,0.124l-0.052,0.124l-0.053,0.123l-0.055,0.122l-0.055,0.122l-0.057,0.12l-0.059,0.12l-0.06,0.119l-0.062,0.118l-0.063,0.118l-0.063,0.116l-0.066,0.115l-0.067,0.115l-0.068,0.114l-0.07,0.113l-0.071,0.112l-0.072,0.111l-0.073,0.11l-0.076,0.109l-0.075,0.109l-0.078,0.108l-0.079,0.106l-0.079,0.105l-0.082,0.104l-0.081,0.104l-0.084,0.102l-0.085,0.102l-0.086,0.1l-0.086,0.099l-0.089,0.098l-0.09,0.098l-0.09,0.096l-0.091,0.095l-0.093,0.094l-0.094,0.093l-0.095,0.091l-0.096,0.09l-0.098,0.09l-0.098,0.089l-0.099,0.086l-0.1,0.086l-0.102,0.085l-0.102,0.084l-0.104,0.081l-0.104,0.082l-0.105,0.079l-0.106,0.079l-0.108,0.078l-0.109,0.075l-0.109,0.076l-0.11,0.073l-0.111,0.072l-0.112,0.071l-0.113,0.07l-0.114,0.068l-0.115,0.067l-0.115,0.066l-0.116,0.063l-0.118,0.063l-0.118,0.062l-0.119,0.06l-0.12,0.059l-0.12,0.057l-0.122,0.055l-0.122,0.055l-0.123,0.053l-0.124,0.052l-0.124,0.049l-0.125,0.049l-0.126,0.047l-0.127,0.046l-0.128,0.044l-0.128,0.042l-0.129,0.041l-0.129,0.039l-0.13,0.039l-0.131,0.036l-0.131,0.035l-0.132,0.033l-0.133,0.031l-0.134,0.03l-0.133,0.028l-0.135,0.027l-0.135,0.025l-0.136,0.024l-0.136,0.022l-0.136,0.019l-0.138,0.018l-0.137,0.018l-0.139,0.014l-0.139,0.014l-0.139,0.011l-0.14,0.01l-0.14,0.008l-0.141,0.006l-0.141,0.004l-0.142,0.003l-0.142,0.001ZM11,21.044l0.13,-0.001l0.129,-0.003l0.13,-0.004l0.128,-0.006l0.128,-0.007l0.128,-0.009l0.127,-0.01l0.127,-0.013l0.126,-0.013l0.126,-0.015l0.126,-0.017l0.125,-0.018l0.124,-0.02l0.124,-0.021l0.123,-0.023l0.123,-0.024l0.122,-0.026l0.122,-0.028l0.121,-0.029l0.12,-0.03l0.12,-0.031l0.119,-0.033l0.119,-0.035l0.118,-0.036l0.118,-0.038l0.117,-0.038l0.116,-0.04l0.116,-0.042l0.114,-0.043l0.114,-0.044l0.114,-0.046l0.113,-0.047l0.113,-0.049l0.111,-0.049l0.11,-0.051l0.111,-0.052l0.109,-0.053l0.109,-0.055l0.107,-0.056l0.108,-0.058l0.106,-0.058l0.105,-0.06l0.106,-0.061l0.103,-0.063l0.103,-0.063l0.102,-0.065l0.102,-0.066l0.101,-0.067l0.1,-0.069l0.098,-0.069l0.098,-0.07l0.098,-0.073l0.096,-0.072l0.096,-0.075l0.094,-0.074l0.093,-0.076l0.093,-0.078l0.092,-0.079l0.09,-0.079l0.09,-0.081l0.089,-0.082l0.088,-0.082l0.087,-0.084l0.086,-0.084l0.084,-0.086l0.084,-0.087l0.082,-0.088l0.082,-0.089l0.081,-0.09l0.079,-0.09l0.079,-0.092l0.078,-0.093l0.076,-0.093l0.074,-0.094l0.075,-0.096l0.072,-0.096l0.073,-0.098l0.07,-0.098l0.069,-0.098l0.069,-0.1l0.067,-0.101l0.066,-0.102l0.065,-0.102l0.063,-0.103l0.063,-0.103l0.061,-0.106l0.06,-0.105l0.058,-0.106l0.058,-0.108l0.056,-0.107l0.055,-0.109l0.053,-0.109l0.052,-0.111l0.051,-0.11l0.049,-0.111l0.049,-0.113l0.047,-0.113l0.046,-0.114l0.044,-0.114l0.043,-0.114l0.042,-0.116l0.04,-0.116l0.038,-0.117l0.038,-0.118l0.036,-0.118l0.035,-0.119l0.033,-0.119l0.031,-0.12l0.03,-0.12l0.029,-0.121l0.028,-0.122l0.026,-0.122l0.024,-0.123l0.023,-0.123l0.021,-0.124l0.02,-0.124l0.018,-0.125l0.017,-0.126l0.015,-0.126l0.013,-0.126l0.013,-0.127l0.01,-0.127l0.009,-0.128l0.007,-0.128l0.006,-0.128l0.004,-0.13l0.003,-0.129l0.001,-0.13l-0.001,-0.13l-0.003,-0.129l-0.004,-0.13l-0.006,-0.128l-0.007,-0.128l-0.009,-0.128l-0.01,-0.127l-0.013,-0.127l-0.013,-0.126l-0.015,-0.126l-0.017,-0.126l-0.018,-0.125l-0.02,-0.124l-0.021,-0.124l-0.023,-0.123l-0.024,-0.123l-0.026,-0.122l-0.028,-0.122l-0.029,-0.121l-0.03,-0.12l-0.031,-0.12l-0.033,-0.119l-0.035,-0.119l-0.036,-0.118l-0.038,-0.118l-0.038,-0.117l-0.04,-0.116l-0.042,-0.116l-0.043,-0.114l-0.044,-0.114l-0.046,-0.114l-0.047,-0.113l-0.049,-0.113l-0.049,-0.11l-0.051,-0.111l-0.052,-0.111l-0.053,-0.109l-0.055,-0.109l-0.056,-0.107l-0.058,-0.108l-0.058,-0.106l-0.06,-0.105l-0.061,-0.106l-0.063,-0.103l-0.063,-0.103l-0.065,-0.102l-0.066,-0.102l-0.067,-0.101l-0.069,-0.1l-0.069,-0.098l-0.07,-0.098l-0.073,-0.098l-0.072,-0.096l-0.075,-0.095l-0.074,-0.095l-0.076,-0.093l-0.078,-0.093l-0.079,-0.092l-0.079,-0.09l-0.081,-0.09l-0.082,-0.089l-0.082,-0.088l-0.084,-0.087l-0.084,-0.085l-0.086,-0.085l-0.087,-0.084l-0.088,-0.082l-0.089,-0.082l-0.09,-0.081l-0.09,-0.079l-0.092,-0.079l-0.093,-0.077l-0.093,-0.077l-0.094,-0.074l-0.096,-0.075l-0.096,-0.072l-0.098,-0.073l-0.098,-0.07l-0.098,-0.069l-0.1,-0.069l-0.101,-0.067l-0.102,-0.066l-0.102,-0.065l-0.103,-0.063l-0.103,-0.062l-0.106,-0.062l-0.105,-0.059l-0.106,-0.059l-0.108,-0.058l-0.107,-0.056l-0.109,-0.055l-0.109,-0.053l-0.111,-0.052l-0.11,-0.051l-0.111,-0.049l-0.113,-0.049l-0.113,-0.047l-0.114,-0.046l-0.114,-0.044l-0.114,-0.043l-0.116,-0.042l-0.116,-0.04l-0.117,-0.038l-0.118,-0.038l-0.118,-0.036l-0.119,-0.035l-0.119,-0.033l-0.12,-0.031l-0.12,-0.03l-0.121,-0.029l-0.122,-0.028l-0.122,-0.025l-0.123,-0.025l-0.123,-0.023l-0.124,-0.021l-0.124,-0.019l-0.125,-0.019l-0.126,-0.017l-0.126,-0.015l-0.126,-0.013l-0.127,-0.013l-0.127,-0.01l-0.128,-0.009l-0.128,-0.007l-0.128,-0.006l-0.13,-0.004l-0.129,-0.003l-0.13,-0.001l-0.13,0.001l-0.129,0.003l-0.13,0.004l-0.128,0.006l-0.128,0.007l-0.128,0.009l-0.127,0.01l-0.127,0.013l-0.126,0.013l-0.126,0.015l-0.126,0.017l-0.125,0.019l-0.124,0.019l-0.124,0.021l-0.123,0.023l-0.123,0.025l-0.122,0.025l-0.122,0.028l-0.121,0.029l-0.12,0.03l-0.12,0.031l-0.119,0.033l-0.119,0.035l-0.118,0.036l-0.118,0.038l-0.117,0.038l-0.116,0.04l-0.116,0.042l-0.114,0.043l-0.114,0.044l-0.114,0.046l-0.113,0.047l-0.113,0.049l-0.11,0.049l-0.111,0.051l-0.111,0.052l-0.109,0.053l-0.109,0.055l-0.107,0.056l-0.108,0.058l-0.106,0.059l-0.105,0.059l-0.106,0.062l-0.103,0.062l-0.103,0.063l-0.102,0.065l-0.102,0.066l-0.101,0.067l-0.1,0.069l-0.098,0.069l-0.098,0.07l-0.098,0.073l-0.096,0.072l-0.095,0.075l-0.095,0.074l-0.093,0.077l-0.093,0.077l-0.092,0.079l-0.09,0.079l-0.09,0.081l-0.089,0.082l-0.088,0.082l-0.087,0.084l-0.085,0.085l-0.085,0.085l-0.084,0.087l-0.082,0.088l-0.082,0.089l-0.081,0.09l-0.079,0.09l-0.079,0.092l-0.077,0.093l-0.077,0.093l-0.074,0.095l-0.075,0.095l-0.072,0.096l-0.073,0.098l-0.07,0.098l-0.069,0.098l-0.069,0.1l-0.067,0.101l-0.066,0.102l-0.065,0.102l-0.063,0.103l-0.062,0.103l-0.062,0.106l-0.059,0.105l-0.059,0.106l-0.058,0.108l-0.056,0.107l-0.055,0.109l-0.053,0.109l-0.052,0.111l-0.051,0.111l-0.049,0.11l-0.049,0.113l-0.047,0.113l-0.046,0.114l-0.044,0.114l-0.043,0.114l-0.042,0.116l-0.04,0.116l-0.038,0.117l-0.038,0.118l-0.036,0.118l-0.035,0.119l-0.033,0.119l-0.031,0.12l-0.03,0.12l-0.029,0.121l-0.028,0.122l-0.025,0.122l-0.025,0.123l-0.023,0.123l-0.021,0.124l-0.019,0.124l-0.019,0.125l-0.017,0.126l-0.015,0.126l-0.013,0.126l-0.013,0.127l-0.01,0.127l-0.009,0.128l-0.007,0.128l-0.006,0.128l-0.004,0.13l-0.003,0.129l-0.001,0.13l0.001,0.13l0.003,0.129l0.004,0.13l0.006,0.128l0.007,0.128l0.009,0.128l0.01,0.127l0.013,0.127l0.013,0.126l0.015,0.126l0.017,0.126l0.019,0.125l0.019,0.124l0.021,0.124l0.023,0.123l0.025,0.123l0.025,0.122l0.028,0.122l0.029,0.121l0.03,0.12l0.031,0.12l0.033,0.119l0.035,0.119l0.036,0.118l0.038,0.118l0.038,0.117l0.04,0.116l0.042,0.116l0.043,0.114l0.044,0.114l0.046,0.114l0.047,0.113l0.049,0.113l0.049,0.111l0.051,0.11l0.052,0.111l0.053,0.109l0.055,0.109l0.056,0.107l0.058,0.108l0.059,0.106l0.059,0.105l0.062,0.106l0.062,0.103l0.063,0.103l0.065,0.102l0.066,0.102l0.067,0.101l0.069,0.1l0.069,0.098l0.07,0.098l0.073,0.098l0.072,0.096l0.075,0.096l0.074,0.094l0.077,0.093l0.077,0.093l0.079,0.092l0.079,0.09l0.081,0.09l0.082,0.089l0.082,0.088l0.084,0.087l0.085,0.086l0.085,0.084l0.087,0.084l0.088,0.082l0.089,0.082l0.09,0.081l0.09,0.079l0.092,0.079l0.093,0.078l0.093,0.076l0.095,0.074l0.095,0.075l0.096,0.072l0.098,0.073l0.098,0.07l0.098,0.069l0.1,0.069l0.101,0.067l0.102,0.066l0.102,0.065l0.103,0.063l0.103,0.063l0.106,0.061l0.105,0.06l0.106,0.058l0.108,0.058l0.107,0.056l0.109,0.055l0.109,0.053l0.111,0.052l0.111,0.051l0.11,0.049l0.113,0.049l0.113,0.047l0.114,0.046l0.114,0.044l0.114,0.043l0.116,0.042l0.116,0.04l0.117,0.038l0.118,0.038l0.118,0.036l0.119,0.035l0.119,0.033l0.12,0.031l0.12,0.03l0.121,0.029l0.122,0.028l0.122,0.026l0.123,0.024l0.123,0.023l0.124,0.021l0.124,0.02l0.125,0.018l0.126,0.017l0.126,0.015l0.126,0.013l0.127,0.013l0.127,0.01l0.128,0.009l0.128,0.007l0.128,0.006l0.13,0.004l0.129,0.003l0.13,0.001Z" style="fill:#838383;"/></g></svg>