<?xml version="1.0" encoding="utf-8"?>
<!-- Generator: Adobe Illustrator 15.1.0, SVG Export Plug-In . SVG Version: 6.00 Build 0)  -->
<!DOCTYPE svg PUBLIC "-//W3C//DTD SVG 1.1//EN" "http://www.w3.org/Graphics/SVG/1.1/DTD/svg11.dtd">
<svg version="1.1" xmlns="http://www.w3.org/2000/svg" xmlns:xlink="http://www.w3.org/1999/xlink" x="0px" y="0px"
	 width="113.386px" height="28.346px" viewBox="0 0 113.386 28.346" enable-background="new 0 0 113.386 28.346"
	 xml:space="preserve">
<g id="Layer_1">
	<line fill="none" stroke="#BCBEC0" stroke-width="0.2835" stroke-miterlimit="10" x1="56.693" y1="2.34" x2="56.693" y2="26.007"/>
	<line fill="none" stroke="#BCBEC0" stroke-width="0.2835" stroke-miterlimit="10" x1="14.592" y1="2.34" x2="14.592" y2="26.007"/>
	<line fill="none" stroke="#BCBEC0" stroke-width="0.2835" stroke-miterlimit="10" x1="98.794" y1="2.34" x2="98.794" y2="26.007"/>
	<path fill="#E6E7E8" stroke="#939598" stroke-width="0.4252" stroke-miterlimit="10" d="M108.848,14.173
		c0,1.915-0.881,3.474-1.961,3.474H6.499c-1.083,0-1.96-1.559-1.96-3.474l0,0c0-1.918,0.877-3.476,1.96-3.476h100.388
		C107.967,10.698,108.848,12.255,108.848,14.173L108.848,14.173z"/>
	<path fill="#A7A9AC" stroke="#E6E7E8" stroke-width="0.2835" stroke-miterlimit="10" d="M66.517,16.797c0,4.358,3.156,7.9,7.05,7.9
		l0,0c3.891,0,7.044-3.542,7.044-7.9v-5.241c0-4.367-3.153-7.906-7.044-7.906l0,0c-3.894,0-7.05,3.539-7.05,7.906V16.797z"/>
</g>
<g id="Layer_3">
</g>
</svg>
