<?xml version="1.0" encoding="utf-8"?>
<!-- Generator: Adobe Illustrator 15.1.0, SVG Export Plug-In . SVG Version: 6.00 Build 0)  -->
<!DOCTYPE svg PUBLIC "-//W3C//DTD SVG 1.1//EN" "http://www.w3.org/Graphics/SVG/1.1/DTD/svg11.dtd">
<svg version="1.1" xmlns="http://www.w3.org/2000/svg" xmlns:xlink="http://www.w3.org/1999/xlink" x="0px" y="0px"
	 width="113.386px" height="28.346px" viewBox="0 0 113.386 28.346" enable-background="new 0 0 113.386 28.346"
	 xml:space="preserve">
<g id="Layer_1">
	<line fill="none" stroke="#BCBEC0" stroke-width="0.2835" stroke-miterlimit="10" x1="7.098" y1="7.203" x2="7.098" y2="21.145"/>
	
		<line fill="none" stroke="#BCBEC0" stroke-width="0.2835" stroke-miterlimit="10" x1="56.693" y1="7.204" x2="56.693" y2="21.143"/>
	
		<line fill="none" stroke="#BCBEC0" stroke-width="0.2835" stroke-miterlimit="10" x1="31.896" y1="7.204" x2="31.896" y2="21.143"/>
	
		<line fill="none" stroke="#BCBEC0" stroke-width="0.2835" stroke-miterlimit="10" x1="81.489" y1="7.204" x2="81.489" y2="21.143"/>
	
		<line fill="none" stroke="#BCBEC0" stroke-width="0.2835" stroke-miterlimit="10" x1="106.287" y1="7.206" x2="106.287" y2="21.14"/>
	<path fill="#E6E7E8" stroke="#939598" stroke-width="0.4252" stroke-miterlimit="10" d="M111.16,14.173
		c0,1.128-0.919,2.047-2.047,2.047H4.272c-1.13,0-2.047-0.919-2.047-2.047l0,0c0-1.13,0.917-2.046,2.047-2.046h104.841
		C110.241,12.126,111.16,13.043,111.16,14.173L111.16,14.173z"/>
	<path fill="#A7A9AC" stroke="#E6E7E8" stroke-width="0.2835" stroke-miterlimit="10" d="M62.479,15.718
		c0,2.567,1.858,4.653,4.152,4.653l0,0c2.291,0,4.147-2.086,4.147-4.653v-3.086c0-2.572-1.856-4.657-4.147-4.657l0,0
		c-2.294,0-4.152,2.084-4.152,4.657V15.718z"/>
</g>
<g id="Layer_3">
</g>
</svg>
