<?xml version="1.0" encoding="utf-8"?>
<!-- Generator: Adobe Illustrator 15.1.0, SVG Export Plug-In . SVG Version: 6.00 Build 0)  -->
<!DOCTYPE svg PUBLIC "-//W3C//DTD SVG 1.1//EN" "http://www.w3.org/Graphics/SVG/1.1/DTD/svg11.dtd">
<svg version="1.1" xmlns="http://www.w3.org/2000/svg" xmlns:xlink="http://www.w3.org/1999/xlink" x="0px" y="0px" width="56.69px"
	 height="22.68px" viewBox="0 0 56.69 22.68" enable-background="new 0 0 56.69 22.68" xml:space="preserve">
<g id="Layer_1">
	<line fill="none" stroke="#BCBEC0" stroke-width="0.2835" stroke-miterlimit="10" x1="5.156" y1="8.081" x2="5.156" y2="14.6"/>
	
		<line fill="none" stroke="#BCBEC0" stroke-width="0.2835" stroke-miterlimit="10" x1="28.345" y1="8.081" x2="28.345" y2="14.599"/>
	
		<line fill="none" stroke="#BCBEC0" stroke-width="0.2835" stroke-miterlimit="10" x1="16.751" y1="8.081" x2="16.751" y2="14.599"/>
	
		<line fill="none" stroke="#BCBEC0" stroke-width="0.2835" stroke-miterlimit="10" x1="39.939" y1="8.081" x2="39.939" y2="14.599"/>
	
		<line fill="none" stroke="#BCBEC0" stroke-width="0.2835" stroke-miterlimit="10" x1="51.534" y1="8.082" x2="51.534" y2="14.598"/>
	<path fill="#E6E7E8" stroke="#939598" stroke-width="0.4252" stroke-miterlimit="10" d="M53.812,11.34
		c0,0.527-0.43,0.957-0.957,0.957H3.835c-0.528,0-0.957-0.43-0.957-0.957l0,0c0-0.528,0.429-0.957,0.957-0.957h49.021
		C53.383,10.383,53.812,10.812,53.812,11.34L53.812,11.34z"/>
	<path fill="#A7A9AC" stroke="#E6E7E8" stroke-width="0.2835" stroke-miterlimit="10" d="M31.051,12.062
		c0,1.2,0.869,2.176,1.941,2.176l0,0c1.071,0,1.939-0.976,1.939-2.176v-1.443c0-1.203-0.868-2.177-1.939-2.177l0,0
		c-1.072,0-1.941,0.975-1.941,2.177V12.062z"/>
</g>
<g id="Layer_3">
</g>
</svg>
