<?xml version="1.0" encoding="utf-8"?>
<!-- Generator: Adobe Illustrator 15.1.0, SVG Export Plug-In . SVG Version: 6.00 Build 0)  -->
<!DOCTYPE svg PUBLIC "-//W3C//DTD SVG 1.1//EN" "http://www.w3.org/Graphics/SVG/1.1/DTD/svg11.dtd">
<svg version="1.1" xmlns="http://www.w3.org/2000/svg" xmlns:xlink="http://www.w3.org/1999/xlink" x="0px" y="0px" width="56.69px"
	 height="22.68px" viewBox="0 0 56.69 22.68" enable-background="new 0 0 56.69 22.68" xml:space="preserve">
<g id="Layer_1">
	<path fill="#E6E7E8" stroke="#939598" stroke-width="0.4252" stroke-miterlimit="10" d="M55.644,11.34
		c0,0.843-0.462,1.531-1.026,1.531H2.072c-0.567,0-1.025-0.688-1.025-1.531l0,0c0-0.845,0.458-1.531,1.025-1.531h52.545
		C55.182,9.809,55.644,10.495,55.644,11.34L55.644,11.34z"/>
	<path fill="#A7A9AC" stroke="#E6E7E8" stroke-width="0.2835" stroke-miterlimit="10" d="M45.927,12.867
		c0,2.535,1.685,4.596,3.762,4.596l0,0c2.076,0,3.759-2.061,3.759-4.596v-3.05c0-2.541-1.683-4.6-3.759-4.6l0,0
		c-2.077,0-3.762,2.059-3.762,4.6V12.867z"/>
</g>
<g id="Layer_3">
</g>
</svg>
