<?xml version="1.0" standalone="no"?><!DOCTYPE svg PUBLIC "-//W3C//DTD SVG 1.1//EN" "http://www.w3.org/Graphics/SVG/1.1/DTD/svg11.dtd"><svg width="100%" height="100%" viewBox="0 0 16 16" version="1.1" xmlns="http://www.w3.org/2000/svg" xmlns:xlink="http://www.w3.org/1999/xlink" xml:space="preserve" style="fill-rule:evenodd;clip-rule:evenodd;stroke-linejoin:round;stroke-miterlimit:1.41421;"><g id="Calque1"><circle cx="8" cy="8" r="8" style="fill:#bcbcbc;"/><path d="M8,16l-0.103,-0.001l-0.103,-0.002l-0.103,-0.003l-0.102,-0.004l-0.103,-0.006l-0.101,-0.007l-0.102,-0.008l-0.101,-0.01l-0.1,-0.011l-0.1,-0.013l-0.1,-0.013l-0.1,-0.014l-0.099,-0.016l-0.098,-0.017l-0.099,-0.018l-0.097,-0.02l-0.098,-0.02l-0.097,-0.022l-0.096,-0.023l-0.096,-0.024l-0.096,-0.025l-0.095,-0.026l-0.094,-0.028l-0.095,-0.029l-0.093,-0.03l-0.094,-0.031l-0.092,-0.032l-0.093,-0.033l-0.091,-0.034l-0.091,-0.035l-0.091,-0.036l-0.09,-0.038l-0.089,-0.038l-0.089,-0.04l-0.088,-0.041l-0.088,-0.041l-0.087,-0.043l-0.087,-0.044l-0.086,-0.045l-0.085,-0.045l-0.085,-0.047l-0.084,-0.048l-0.083,-0.048l-0.083,-0.05l-0.082,-0.051l-0.082,-0.051l-0.08,-0.053l-0.08,-0.053l-0.08,-0.055l-0.079,-0.055l-0.078,-0.056l-0.077,-0.057l-0.077,-0.058l-0.076,-0.059l-0.075,-0.06l-0.074,-0.061l-0.074,-0.061l-0.073,-0.063l-0.072,-0.063l-0.072,-0.064l-0.071,-0.066l-0.069,-0.065l-0.069,-0.067l-0.069,-0.067l-0.067,-0.069l-0.067,-0.069l-0.065,-0.069l-0.066,-0.071l-0.064,-0.072l-0.063,-0.072l-0.063,-0.073l-0.061,-0.074l-0.061,-0.074l-0.06,-0.075l-0.059,-0.076l-0.058,-0.077l-0.057,-0.077l-0.056,-0.078l-0.055,-0.079l-0.055,-0.08l-0.053,-0.08l-0.053,-0.08l-0.051,-0.082l-0.051,-0.082l-0.05,-0.083l-0.048,-0.083l-0.048,-0.084l-0.047,-0.085l-0.045,-0.085l-0.045,-0.086l-0.044,-0.087l-0.043,-0.087l-0.041,-0.088l-0.041,-0.088l-0.04,-0.089l-0.038,-0.089l-0.038,-0.09l-0.036,-0.091l-0.035,-0.091l-0.034,-0.091l-0.033,-0.093l-0.032,-0.092l-0.031,-0.094l-0.03,-0.093l-0.029,-0.095l-0.028,-0.094l-0.026,-0.095l-0.025,-0.096l-0.024,-0.096l-0.023,-0.096l-0.022,-0.097l-0.02,-0.098l-0.02,-0.097l-0.018,-0.099l-0.017,-0.098l-0.016,-0.099l-0.014,-0.1l-0.013,-0.1l-0.013,-0.1l-0.011,-0.1l-0.01,-0.101l-0.008,-0.102l-0.007,-0.101l-0.006,-0.103l-0.004,-0.102l-0.003,-0.103l-0.002,-0.103l-0.001,-0.103l0.001,-0.103l0.002,-0.103l0.003,-0.103l0.004,-0.102l0.006,-0.103l0.007,-0.101l0.008,-0.102l0.01,-0.101l0.011,-0.1l0.013,-0.1l0.013,-0.1l0.014,-0.1l0.016,-0.099l0.017,-0.098l0.018,-0.099l0.02,-0.097l0.02,-0.098l0.022,-0.097l0.023,-0.096l0.024,-0.096l0.025,-0.096l0.026,-0.095l0.028,-0.094l0.029,-0.095l0.03,-0.093l0.031,-0.094l0.032,-0.092l0.033,-0.093l0.034,-0.091l0.035,-0.091l0.036,-0.091l0.038,-0.09l0.038,-0.089l0.04,-0.089l0.041,-0.088l0.041,-0.088l0.043,-0.087l0.044,-0.087l0.045,-0.086l0.045,-0.085l0.047,-0.085l0.048,-0.084l0.048,-0.083l0.05,-0.083l0.051,-0.082l0.051,-0.082l0.053,-0.08l0.053,-0.08l0.055,-0.08l0.055,-0.079l0.056,-0.078l0.057,-0.077l0.058,-0.077l0.059,-0.076l0.06,-0.075l0.061,-0.074l0.061,-0.074l0.063,-0.073l0.063,-0.072l0.064,-0.072l0.066,-0.071l0.065,-0.069l0.067,-0.069l0.067,-0.069l0.069,-0.067l0.069,-0.067l0.069,-0.065l0.071,-0.066l0.072,-0.064l0.072,-0.063l0.073,-0.063l0.074,-0.061l0.074,-0.061l0.075,-0.06l0.076,-0.059l0.077,-0.058l0.077,-0.057l0.078,-0.056l0.079,-0.055l0.08,-0.055l0.08,-0.053l0.08,-0.053l0.082,-0.051l0.082,-0.051l0.083,-0.05l0.083,-0.048l0.084,-0.048l0.085,-0.047l0.085,-0.045l0.086,-0.045l0.087,-0.044l0.087,-0.043l0.088,-0.041l0.088,-0.041l0.089,-0.04l0.089,-0.038l0.09,-0.038l0.091,-0.036l0.091,-0.035l0.091,-0.034l0.093,-0.033l0.092,-0.032l0.094,-0.031l0.093,-0.03l0.095,-0.029l0.094,-0.028l0.095,-0.026l0.096,-0.025l0.096,-0.024l0.096,-0.023l0.097,-0.022l0.098,-0.02l0.097,-0.02l0.099,-0.018l0.098,-0.017l0.099,-0.016l0.1,-0.014l0.1,-0.013l0.1,-0.013l0.1,-0.011l0.101,-0.01l0.102,-0.008l0.101,-0.007l0.103,-0.006l0.102,-0.004l0.103,-0.003l0.103,-0.002l0.103,-0.001l0.103,0.001l0.103,0.002l0.103,0.003l0.102,0.004l0.103,0.006l0.101,0.007l0.102,0.008l0.101,0.01l0.1,0.011l0.1,0.013l0.1,0.013l0.1,0.014l0.099,0.016l0.098,0.017l0.099,0.018l0.097,0.02l0.098,0.02l0.097,0.022l0.096,0.023l0.096,0.024l0.096,0.025l0.095,0.026l0.094,0.028l0.095,0.029l0.093,0.03l0.094,0.031l0.092,0.032l0.093,0.033l0.091,0.034l0.091,0.035l0.091,0.036l0.09,0.038l0.089,0.038l0.089,0.04l0.088,0.041l0.088,0.041l0.087,0.043l0.087,0.044l0.086,0.045l0.085,0.045l0.085,0.047l0.084,0.048l0.083,0.048l0.083,0.05l0.082,0.051l0.082,0.051l0.08,0.053l0.08,0.053l0.08,0.055l0.079,0.055l0.078,0.056l0.077,0.057l0.077,0.058l0.076,0.059l0.075,0.06l0.074,0.061l0.074,0.061l0.073,0.063l0.072,0.063l0.072,0.064l0.071,0.066l0.069,0.065l0.069,0.067l0.069,0.067l0.067,0.069l0.067,0.069l0.065,0.069l0.066,0.071l0.064,0.072l0.063,0.072l0.063,0.073l0.061,0.074l0.061,0.074l0.06,0.075l0.059,0.076l0.058,0.077l0.057,0.077l0.056,0.078l0.055,0.079l0.055,0.08l0.053,0.08l0.053,0.08l0.051,0.082l0.051,0.082l0.05,0.083l0.048,0.083l0.048,0.084l0.047,0.085l0.045,0.085l0.045,0.086l0.044,0.087l0.043,0.087l0.041,0.088l0.041,0.088l0.04,0.089l0.038,0.089l0.038,0.09l0.036,0.091l0.035,0.091l0.034,0.091l0.033,0.093l0.032,0.092l0.031,0.094l0.03,0.093l0.029,0.095l0.028,0.094l0.026,0.095l0.025,0.096l0.024,0.096l0.023,0.096l0.022,0.097l0.02,0.098l0.02,0.097l0.018,0.099l0.017,0.098l0.016,0.099l0.014,0.1l0.013,0.1l0.013,0.1l0.011,0.1l0.01,0.101l0.008,0.102l0.007,0.101l0.006,0.103l0.004,0.102l0.003,0.103l0.002,0.103l0.001,0.103l-0.001,0.103l-0.002,0.103l-0.003,0.103l-0.004,0.102l-0.006,0.103l-0.007,0.101l-0.008,0.102l-0.01,0.101l-0.011,0.1l-0.013,0.1l-0.013,0.1l-0.014,0.1l-0.016,0.099l-0.017,0.098l-0.018,0.099l-0.02,0.097l-0.02,0.098l-0.022,0.097l-0.023,0.096l-0.024,0.096l-0.025,0.096l-0.026,0.095l-0.028,0.094l-0.029,0.095l-0.03,0.093l-0.031,0.094l-0.032,0.092l-0.033,0.093l-0.034,0.091l-0.035,0.091l-0.036,0.091l-0.038,0.09l-0.038,0.089l-0.04,0.089l-0.041,0.088l-0.041,0.088l-0.043,0.087l-0.044,0.087l-0.045,0.086l-0.045,0.085l-0.047,0.085l-0.048,0.084l-0.048,0.083l-0.05,0.083l-0.051,0.082l-0.051,0.082l-0.053,0.08l-0.053,0.08l-0.055,0.08l-0.055,0.079l-0.056,0.078l-0.057,0.077l-0.058,0.077l-0.059,0.076l-0.06,0.075l-0.061,0.074l-0.061,0.074l-0.063,0.073l-0.063,0.072l-0.064,0.072l-0.066,0.071l-0.065,0.069l-0.067,0.069l-0.067,0.069l-0.069,0.067l-0.069,0.067l-0.069,0.065l-0.071,0.066l-0.072,0.064l-0.072,0.063l-0.073,0.063l-0.074,0.061l-0.074,0.061l-0.075,0.06l-0.076,0.059l-0.077,0.058l-0.077,0.057l-0.078,0.056l-0.079,0.055l-0.08,0.055l-0.08,0.053l-0.08,0.053l-0.082,0.051l-0.082,0.051l-0.083,0.05l-0.083,0.048l-0.084,0.048l-0.085,0.047l-0.085,0.045l-0.086,0.045l-0.087,0.044l-0.087,0.043l-0.088,0.041l-0.088,0.041l-0.089,0.04l-0.089,0.038l-0.09,0.038l-0.091,0.036l-0.091,0.035l-0.091,0.034l-0.093,0.033l-0.092,0.032l-0.094,0.031l-0.093,0.03l-0.095,0.029l-0.094,0.028l-0.095,0.026l-0.096,0.025l-0.096,0.024l-0.096,0.023l-0.097,0.022l-0.098,0.02l-0.097,0.02l-0.099,0.018l-0.098,0.017l-0.099,0.016l-0.1,0.014l-0.1,0.013l-0.1,0.013l-0.1,0.011l-0.101,0.01l-0.102,0.008l-0.101,0.007l-0.103,0.006l-0.102,0.004l-0.103,0.003l-0.103,0.002l-0.103,0.001ZM8,15.305l0.094,-0.001l0.095,-0.002l0.094,-0.003l0.093,-0.004l0.093,-0.005l0.093,-0.007l0.093,-0.008l0.092,-0.009l0.092,-0.009l0.091,-0.011l0.092,-0.013l0.091,-0.013l0.09,-0.014l0.09,-0.016l0.089,-0.016l0.09,-0.018l0.089,-0.019l0.088,-0.02l0.088,-0.021l0.088,-0.022l0.087,-0.023l0.087,-0.024l0.086,-0.025l0.086,-0.026l0.086,-0.027l0.085,-0.028l0.084,-0.03l0.084,-0.03l0.084,-0.031l0.083,-0.032l0.082,-0.033l0.083,-0.035l0.081,-0.035l0.081,-0.036l0.081,-0.037l0.08,-0.038l0.08,-0.039l0.078,-0.04l0.079,-0.04l0.078,-0.042l0.077,-0.043l0.077,-0.043l0.076,-0.045l0.076,-0.045l0.075,-0.046l0.074,-0.048l0.074,-0.048l0.073,-0.048l0.073,-0.05l0.071,-0.05l0.072,-0.052l0.071,-0.052l0.07,-0.053l0.069,-0.054l0.069,-0.055l0.068,-0.055l0.067,-0.057l0.067,-0.057l0.066,-0.057l0.065,-0.059l0.064,-0.06l0.064,-0.06l0.064,-0.06l0.062,-0.062l0.062,-0.062l0.06,-0.064l0.06,-0.064l0.06,-0.064l0.059,-0.065l0.057,-0.066l0.057,-0.067l0.057,-0.067l0.055,-0.068l0.055,-0.069l0.054,-0.069l0.053,-0.07l0.052,-0.071l0.052,-0.072l0.05,-0.071l0.05,-0.073l0.048,-0.073l0.048,-0.074l0.048,-0.074l0.046,-0.075l0.045,-0.076l0.045,-0.076l0.043,-0.077l0.043,-0.077l0.042,-0.078l0.04,-0.079l0.04,-0.078l0.039,-0.08l0.038,-0.08l0.037,-0.081l0.036,-0.081l0.035,-0.081l0.035,-0.083l0.033,-0.082l0.032,-0.083l0.031,-0.084l0.03,-0.084l0.03,-0.084l0.028,-0.085l0.027,-0.086l0.026,-0.086l0.025,-0.086l0.024,-0.087l0.023,-0.087l0.022,-0.088l0.021,-0.088l0.02,-0.088l0.019,-0.089l0.018,-0.09l0.016,-0.089l0.016,-0.09l0.014,-0.09l0.013,-0.091l0.013,-0.092l0.011,-0.091l0.009,-0.092l0.009,-0.092l0.008,-0.093l0.007,-0.093l0.005,-0.093l0.004,-0.093l0.003,-0.094l0.002,-0.095l0.001,-0.094l-0.001,-0.094l-0.002,-0.095l-0.003,-0.094l-0.004,-0.093l-0.005,-0.093l-0.007,-0.093l-0.008,-0.093l-0.009,-0.092l-0.009,-0.092l-0.011,-0.091l-0.013,-0.092l-0.013,-0.091l-0.014,-0.09l-0.016,-0.09l-0.016,-0.089l-0.018,-0.09l-0.019,-0.089l-0.02,-0.088l-0.021,-0.088l-0.022,-0.088l-0.023,-0.087l-0.024,-0.087l-0.025,-0.086l-0.026,-0.086l-0.027,-0.086l-0.028,-0.085l-0.03,-0.084l-0.03,-0.084l-0.031,-0.084l-0.032,-0.083l-0.033,-0.082l-0.035,-0.083l-0.035,-0.081l-0.036,-0.081l-0.037,-0.081l-0.038,-0.08l-0.039,-0.08l-0.04,-0.078l-0.04,-0.079l-0.042,-0.078l-0.043,-0.077l-0.043,-0.077l-0.045,-0.076l-0.045,-0.076l-0.046,-0.075l-0.048,-0.074l-0.048,-0.074l-0.048,-0.073l-0.05,-0.073l-0.05,-0.071l-0.052,-0.072l-0.052,-0.071l-0.053,-0.07l-0.054,-0.069l-0.055,-0.069l-0.055,-0.068l-0.057,-0.067l-0.057,-0.067l-0.057,-0.066l-0.059,-0.065l-0.06,-0.064l-0.06,-0.064l-0.06,-0.064l-0.062,-0.062l-0.062,-0.062l-0.064,-0.06l-0.064,-0.06l-0.064,-0.06l-0.065,-0.059l-0.066,-0.057l-0.067,-0.057l-0.067,-0.057l-0.068,-0.055l-0.069,-0.055l-0.069,-0.054l-0.07,-0.053l-0.071,-0.052l-0.072,-0.052l-0.071,-0.05l-0.073,-0.05l-0.073,-0.048l-0.074,-0.048l-0.074,-0.048l-0.075,-0.046l-0.076,-0.045l-0.076,-0.045l-0.077,-0.043l-0.077,-0.043l-0.078,-0.042l-0.079,-0.04l-0.078,-0.04l-0.08,-0.039l-0.08,-0.038l-0.081,-0.037l-0.081,-0.036l-0.081,-0.035l-0.083,-0.035l-0.082,-0.033l-0.083,-0.032l-0.084,-0.031l-0.084,-0.03l-0.084,-0.03l-0.085,-0.028l-0.086,-0.027l-0.086,-0.026l-0.086,-0.025l-0.087,-0.024l-0.087,-0.023l-0.088,-0.022l-0.088,-0.021l-0.088,-0.02l-0.089,-0.019l-0.09,-0.018l-0.089,-0.016l-0.09,-0.016l-0.09,-0.014l-0.091,-0.013l-0.092,-0.013l-0.091,-0.011l-0.092,-0.009l-0.092,-0.009l-0.093,-0.008l-0.093,-0.007l-0.093,-0.005l-0.093,-0.004l-0.094,-0.003l-0.095,-0.002l-0.094,-0.001l-0.094,0.001l-0.095,0.002l-0.094,0.003l-0.093,0.004l-0.093,0.005l-0.093,0.007l-0.093,0.008l-0.092,0.009l-0.092,0.009l-0.091,0.011l-0.092,0.013l-0.091,0.013l-0.09,0.014l-0.09,0.016l-0.089,0.016l-0.09,0.018l-0.089,0.019l-0.088,0.02l-0.088,0.021l-0.088,0.022l-0.087,0.023l-0.087,0.024l-0.086,0.025l-0.086,0.026l-0.086,0.027l-0.085,0.028l-0.084,0.03l-0.084,0.03l-0.084,0.031l-0.083,0.032l-0.082,0.033l-0.083,0.035l-0.081,0.035l-0.081,0.036l-0.081,0.037l-0.08,0.038l-0.08,0.039l-0.078,0.04l-0.079,0.04l-0.078,0.042l-0.077,0.043l-0.077,0.043l-0.076,0.045l-0.076,0.045l-0.075,0.046l-0.074,0.048l-0.074,0.048l-0.073,0.048l-0.073,0.05l-0.071,0.05l-0.072,0.052l-0.071,0.052l-0.07,0.053l-0.069,0.054l-0.069,0.055l-0.068,0.055l-0.067,0.057l-0.067,0.057l-0.066,0.057l-0.065,0.059l-0.064,0.06l-0.064,0.06l-0.064,0.06l-0.062,0.062l-0.062,0.062l-0.06,0.064l-0.06,0.064l-0.06,0.064l-0.059,0.065l-0.057,0.066l-0.057,0.067l-0.057,0.067l-0.055,0.068l-0.055,0.069l-0.054,0.069l-0.053,0.07l-0.052,0.071l-0.052,0.072l-0.05,0.071l-0.05,0.073l-0.048,0.073l-0.048,0.074l-0.048,0.074l-0.046,0.075l-0.045,0.076l-0.045,0.076l-0.043,0.077l-0.043,0.077l-0.042,0.078l-0.04,0.079l-0.04,0.078l-0.039,0.08l-0.038,0.08l-0.037,0.081l-0.036,0.081l-0.035,0.081l-0.035,0.083l-0.033,0.082l-0.032,0.083l-0.031,0.084l-0.03,0.084l-0.03,0.084l-0.028,0.085l-0.027,0.086l-0.026,0.086l-0.025,0.086l-0.024,0.087l-0.023,0.087l-0.022,0.088l-0.021,0.088l-0.02,0.088l-0.019,0.089l-0.018,0.09l-0.016,0.089l-0.016,0.09l-0.014,0.09l-0.013,0.091l-0.013,0.092l-0.011,0.091l-0.009,0.092l-0.009,0.092l-0.008,0.093l-0.007,0.093l-0.005,0.093l-0.004,0.093l-0.003,0.094l-0.002,0.095l-0.001,0.094l0.001,0.094l0.002,0.095l0.003,0.094l0.004,0.093l0.005,0.093l0.007,0.093l0.008,0.093l0.009,0.092l0.009,0.092l0.011,0.091l0.013,0.092l0.013,0.091l0.014,0.09l0.016,0.09l0.016,0.089l0.018,0.09l0.019,0.089l0.02,0.088l0.021,0.088l0.022,0.088l0.023,0.087l0.024,0.087l0.025,0.086l0.026,0.086l0.027,0.086l0.028,0.085l0.03,0.084l0.03,0.084l0.031,0.084l0.032,0.083l0.033,0.082l0.035,0.083l0.035,0.081l0.036,0.081l0.037,0.081l0.038,0.08l0.039,0.08l0.04,0.078l0.04,0.079l0.042,0.078l0.043,0.077l0.043,0.077l0.045,0.076l0.045,0.076l0.046,0.075l0.048,0.074l0.048,0.074l0.048,0.073l0.05,0.073l0.05,0.071l0.052,0.072l0.052,0.071l0.053,0.07l0.054,0.069l0.055,0.069l0.055,0.068l0.057,0.067l0.057,0.067l0.057,0.066l0.059,0.065l0.06,0.064l0.06,0.064l0.06,0.064l0.062,0.062l0.062,0.062l0.064,0.06l0.064,0.06l0.064,0.06l0.065,0.059l0.066,0.057l0.067,0.057l0.067,0.057l0.068,0.055l0.069,0.055l0.069,0.054l0.07,0.053l0.071,0.052l0.072,0.052l0.071,0.05l0.073,0.05l0.073,0.048l0.074,0.048l0.074,0.048l0.075,0.046l0.076,0.045l0.076,0.045l0.077,0.043l0.077,0.043l0.078,0.042l0.079,0.04l0.078,0.04l0.08,0.039l0.08,0.038l0.081,0.037l0.081,0.036l0.081,0.035l0.083,0.035l0.082,0.033l0.083,0.032l0.084,0.031l0.084,0.03l0.084,0.03l0.085,0.028l0.086,0.027l0.086,0.026l0.086,0.025l0.087,0.024l0.087,0.023l0.088,0.022l0.088,0.021l0.088,0.02l0.089,0.019l0.09,0.018l0.089,0.016l0.09,0.016l0.09,0.014l0.091,0.013l0.092,0.013l0.091,0.011l0.092,0.009l0.092,0.009l0.093,0.008l0.093,0.007l0.093,0.005l0.093,0.004l0.094,0.003l0.095,0.002l0.094,0.001Z" style="fill:#838383;"/></g></svg>